<?xml version="1.0" encoding="UTF-8"?>
<svg xmlns="http://www.w3.org/2000/svg" xmlns:xlink="http://www.w3.org/1999/xlink" viewBox="0 0 250 250" width="250px" height="250px">
<g id="surface117445005">
<path style=" stroke:none;fill-rule:nonzero;fill:rgb(98.039216%,98.039216%,98.039216%);fill-opacity:1;" d="M 5 15 L 5 75 L 15 75 L 15 240 L 235 240 L 235 75 L 245 75 L 245 15 Z M 15 25 L 235 25 L 235 65 L 15 65 Z M 25 75 L 225 75 L 225 230 L 25 230 Z M 87.5 95 C 77.890625 95 70 102.890625 70 112.5 C 70 122.109375 77.890625 130 87.5 130 L 162.5 130 C 172.109375 130 180 122.109375 180 112.5 C 180 102.890625 172.109375 95 162.5 95 Z M 87.5 105 L 162.5 105 C 166.699219 105 170 108.300781 170 112.5 C 170 116.699219 166.699219 120 162.5 120 L 87.5 120 C 83.300781 120 80 116.699219 80 112.5 C 80 108.300781 83.300781 105 87.5 105 Z M 87.5 105 "/>
</g>
</svg>
