<?xml version="1.0" encoding="UTF-8"?>
<svg xmlns="http://www.w3.org/2000/svg" xmlns:xlink="http://www.w3.org/1999/xlink" viewBox="0 0 250 250" width="250px" height="250px">
<g id="surface117460665">
<path style=" stroke:none;fill-rule:nonzero;fill:rgb(98.039216%,98.039216%,98.039216%);fill-opacity:1;" d="M 111.027344 10 C 108.578125 10 106.492188 11.773438 106.09375 14.1875 L 101.230469 43.964844 C 95.382812 45.664062 89.804688 47.960938 84.550781 50.820312 L 59.980469 33.269531 C 57.992188 31.851562 55.273438 32.074219 53.542969 33.796875 L 34.09375 53.230469 C 32.375 54.949219 32.140625 57.652344 33.535156 59.636719 L 50.820312 84.363281 C 47.917969 89.652344 45.570312 95.257812 43.828125 101.160156 L 14.179688 106.09375 C 11.773438 106.5 10.007812 108.585938 10.007812 111.027344 L 10.007812 138.527344 C 10.003906 140.953125 11.742188 143.03125 14.128906 143.457031 L 43.796875 148.710938 C 45.53125 154.605469 47.863281 160.214844 50.769531 165.507812 L 33.269531 189.988281 C 31.851562 191.976562 32.074219 194.695312 33.796875 196.425781 L 53.242188 215.878906 C 54.957031 217.59375 57.652344 217.832031 59.636719 216.445312 L 84.414062 199.101562 C 89.683594 201.976562 95.273438 204.289062 101.140625 206.003906 L 106.09375 235.820312 C 106.496094 238.230469 108.582031 240 111.023438 240 L 138.523438 240 C 140.953125 240.003906 143.035156 238.261719 143.457031 235.871094 L 148.757812 205.9375 C 154.601562 204.195312 160.167969 201.847656 165.410156 198.957031 L 190.351562 216.457031 C 192.339844 217.847656 195.039062 217.613281 196.757812 215.898438 L 216.199219 196.433594 C 217.933594 194.703125 218.152344 191.96875 216.71875 189.980469 L 198.933594 165.292969 C 201.777344 160.074219 204.070312 154.542969 205.773438 148.738281 L 235.859375 143.464844 C 238.25 143.042969 239.992188 140.964844 239.992188 138.535156 L 239.992188 111.035156 C 239.988281 108.585938 238.214844 106.5 235.800781 106.101562 L 205.761719 101.191406 C 204.046875 95.394531 201.75 89.875 198.90625 84.65625 L 216.445312 59.667969 C 217.839844 57.679688 217.605469 54.980469 215.890625 53.261719 L 196.4375 33.816406 C 194.703125 32.085938 191.96875 31.867188 189.980469 33.300781 L 165.363281 51.003906 C 160.117188 48.125 154.546875 45.789062 148.691406 44.0625 L 143.457031 14.140625 C 143.039062 11.746094 140.957031 9.996094 138.527344 10 Z M 115.28125 20 L 134.324219 20 L 139.304688 48.429688 C 139.644531 50.375 141.101562 51.941406 143.015625 52.421875 C 150.332031 54.246094 157.199219 57.132812 163.464844 60.929688 C 165.179688 61.964844 167.347656 61.882812 168.972656 60.714844 L 192.371094 43.898438 L 205.839844 57.363281 L 189.179688 81.105469 C 188.042969 82.722656 187.964844 84.859375 188.984375 86.554688 C 192.742188 92.808594 195.589844 99.632812 197.410156 106.90625 C 197.898438 108.839844 199.484375 110.300781 201.453125 110.625 L 229.988281 115.292969 L 229.988281 134.335938 L 201.394531 139.355469 C 199.445312 139.699219 197.882812 141.164062 197.410156 143.085938 C 195.613281 150.347656 192.761719 157.171875 189.003906 163.425781 C 187.972656 165.140625 188.0625 167.300781 189.226562 168.925781 L 206.121094 192.371094 L 192.65625 205.847656 L 168.957031 189.21875 C 167.328125 188.078125 165.183594 188.011719 163.488281 189.042969 C 157.25 192.835938 150.375 195.738281 143.085938 197.585938 C 141.175781 198.070312 139.730469 199.625 139.386719 201.5625 L 134.335938 230 L 115.265625 230 L 110.558594 201.6875 C 110.230469 199.722656 108.761719 198.136719 106.828125 197.65625 C 99.507812 195.851562 92.609375 192.96875 86.300781 189.179688 C 84.605469 188.164062 82.476562 188.242188 80.859375 189.375 L 57.34375 205.847656 L 43.867188 192.351562 L 60.488281 169.121094 C 61.648438 167.492188 61.730469 165.332031 60.695312 163.621094 C 56.863281 157.292969 53.964844 150.394531 52.140625 143.046875 C 51.660156 141.132812 50.105469 139.679688 48.164062 139.335938 L 20.011719 134.335938 L 20.011719 115.261719 L 48.144531 110.585938 C 50.109375 110.261719 51.695312 108.796875 52.179688 106.863281 C 54.019531 99.492188 56.917969 92.59375 60.734375 86.277344 C 61.761719 84.585938 61.691406 82.445312 60.558594 80.820312 L 44.132812 57.34375 L 57.617188 43.867188 L 80.929688 60.527344 C 82.546875 61.683594 84.699219 61.765625 86.40625 60.742188 C 92.683594 56.972656 99.597656 54.109375 106.925781 52.3125 C 108.871094 51.835938 110.34375 50.238281 110.664062 48.261719 Z M 125 85 C 102.96875 85 85 102.96875 85 125 C 85 147.03125 102.96875 165 125 165 C 147.03125 165 165 147.03125 165 125 C 165 102.96875 147.03125 85 125 85 Z M 125 95 C 141.628906 95 155 108.371094 155 125 C 155 141.628906 141.628906 155 125 155 C 108.371094 155 95 141.628906 95 125 C 95 108.371094 108.371094 95 125 95 Z M 125 95 "/>
</g>
</svg>
