<?xml version="1.0" encoding="UTF-8"?> <svg xmlns="http://www.w3.org/2000/svg" width="189" height="60" viewBox="0 0 189 60" fill="none"><path d="M98.7198 51.0279H96.1276L95.6034 52.5556H94.5064L96.993 45.7175H97.8543L100.341 52.5556H99.248L98.7198 51.0279ZM98.4232 50.1096L97.4318 47.1233H97.4115L96.4242 50.1096H98.4232Z" fill="#727274"></path><path d="M103.376 45.7216H106.045C106.614 45.7216 107.077 45.8719 107.439 46.1726C107.874 46.5139 108.101 47.0014 108.118 47.6312C108.105 48.5616 107.662 49.1914 106.793 49.5246L108.378 52.5596H107.142L105.733 49.6383H104.408V52.5596H103.372V45.7216H103.376ZM104.412 48.716H105.98C106.366 48.7079 106.659 48.5982 106.854 48.3788C107.045 48.1756 107.138 47.9237 107.138 47.6271C107.13 47.2696 107.016 47.0136 106.797 46.8552C106.622 46.713 106.37 46.6439 106.037 46.6439H104.416V48.716H104.412Z" fill="#727274"></path><path d="M109.881 50.4956C109.881 50.8857 109.995 51.1823 110.218 51.3854C110.425 51.5926 110.702 51.6942 111.043 51.6942C111.441 51.6942 111.795 51.5358 112.107 51.2189L112.814 51.8242C112.319 52.3565 111.734 52.6165 111.059 52.6125C110.803 52.6125 110.551 52.5759 110.307 52.4987C110.186 52.4581 110.068 52.4053 109.95 52.3362C109.828 52.2752 109.714 52.2021 109.609 52.1168C109.401 51.9339 109.235 51.682 109.109 51.357C108.967 51.0441 108.898 50.6378 108.898 50.1381C108.898 49.6586 108.959 49.2564 109.08 48.9395C109.202 48.6144 109.361 48.3585 109.548 48.1716C109.743 47.9806 109.958 47.8425 110.198 47.7571C110.437 47.6718 110.669 47.6312 110.901 47.6312C111.457 47.6393 111.929 47.8222 112.311 48.1797C112.701 48.5454 112.9 49.0492 112.908 49.6911V50.4956H109.881ZM111.937 49.6871C111.925 49.3092 111.823 49.0248 111.632 48.8298C111.445 48.647 111.205 48.5535 110.909 48.5535C110.616 48.5535 110.372 48.647 110.186 48.8298C110.003 49.0248 109.901 49.3092 109.881 49.6871H111.937Z" fill="#727274"></path><path d="M116.5 52.1249H116.479C116.39 52.2915 116.248 52.4134 116.057 52.4906C115.87 52.5718 115.61 52.6125 115.277 52.6125C114.732 52.6043 114.314 52.4621 114.021 52.1818C113.712 51.9055 113.558 51.5561 113.558 51.1254C113.558 50.715 113.692 50.3778 113.96 50.1096C114.228 49.8333 114.622 49.6952 115.142 49.6871H116.5V49.1751C116.508 48.7485 116.174 48.5372 115.5 48.5535C115.256 48.5535 115.065 48.5779 114.923 48.6266C114.777 48.6876 114.659 48.7851 114.578 48.9273L113.81 48.3422C114.184 47.8547 114.732 47.619 115.455 47.6312C116.069 47.6231 116.556 47.7409 116.922 47.9765C117.288 48.2203 117.475 48.6388 117.479 49.232V52.5556H116.5V52.1249ZM116.5 50.4956H115.325C114.757 50.5078 114.476 50.7028 114.48 51.0807C114.48 51.2473 114.553 51.3854 114.7 51.5032C114.842 51.6333 115.073 51.6942 115.398 51.6942C115.809 51.7023 116.097 51.6536 116.264 51.5479C116.418 51.4464 116.495 51.2107 116.495 50.845V50.4956H116.5Z" fill="#727274"></path><path d="M118.746 45.7216H119.726V51.3001C119.726 51.5236 119.847 51.6333 120.091 51.6333H120.428V52.5556H119.994C119.636 52.5556 119.344 52.4662 119.112 52.2874C118.868 52.1046 118.746 51.7999 118.746 51.3733V45.7216Z" fill="#727274"></path><path d="M121.31 45.7216H123.785C124.053 45.7216 124.313 45.746 124.565 45.7947C124.817 45.8597 125.068 45.9938 125.324 46.1969C125.54 46.3513 125.714 46.5707 125.849 46.8552C125.991 47.1314 126.06 47.4565 126.06 47.8303C126.06 48.3382 125.881 48.7973 125.528 49.2117C125.162 49.6505 124.626 49.874 123.923 49.8862H122.346V52.5556H121.31V45.7216ZM122.346 48.9111H123.878C124.264 48.9029 124.552 48.7851 124.743 48.5535C124.926 48.33 125.02 48.0781 125.02 47.8018C125.02 47.5743 124.983 47.3834 124.906 47.2249C124.829 47.0827 124.719 46.973 124.577 46.8917C124.366 46.7576 124.118 46.6926 123.837 46.7008H122.342V48.9111H122.346Z" fill="#727274"></path><path d="M129.229 52.1249H129.209C129.119 52.2915 128.977 52.4134 128.786 52.4906C128.599 52.5718 128.339 52.6125 128.006 52.6125C127.462 52.6043 127.043 52.4621 126.751 52.1818C126.442 51.9055 126.287 51.5561 126.287 51.1254C126.287 50.715 126.421 50.3778 126.69 50.1096C126.958 49.8333 127.352 49.6952 127.872 49.6871H129.229V49.1751C129.237 48.7485 128.904 48.5372 128.229 48.5535C127.986 48.5535 127.795 48.5779 127.653 48.6266C127.506 48.6876 127.388 48.7851 127.307 48.9273L126.539 48.3422C126.913 47.8547 127.462 47.619 128.185 47.6312C128.798 47.6231 129.286 47.7409 129.652 47.9765C130.017 48.2203 130.204 48.6388 130.208 49.232V52.5556H129.229V52.1249ZM129.229 50.4956H128.055C127.486 50.5078 127.206 50.7028 127.21 51.0807C127.21 51.2473 127.283 51.3854 127.429 51.5032C127.571 51.6333 127.803 51.6942 128.128 51.6942C128.538 51.7023 128.827 51.6536 128.993 51.5479C129.148 51.4464 129.225 51.2107 129.225 50.845V50.4956H129.229Z" fill="#727274"></path><path d="M134.214 52.0477C133.893 52.4134 133.475 52.6043 132.959 52.6165C132.642 52.6084 132.382 52.5434 132.171 52.4134C131.951 52.2915 131.785 52.1615 131.671 52.0192C131.541 51.8608 131.451 51.6658 131.395 51.4342C131.334 51.2066 131.305 50.7719 131.305 50.1299C131.305 49.4758 131.334 49.0329 131.395 48.8013C131.451 48.5738 131.545 48.3828 131.671 48.2244C131.789 48.07 131.955 47.9318 132.171 47.8099C132.382 47.6962 132.642 47.6352 132.959 47.6271C133.442 47.6271 133.861 47.8181 134.214 48.2041V47.6881H135.193V52.4418C135.181 53.1731 134.97 53.7095 134.56 54.0548C134.145 54.4083 133.654 54.583 133.077 54.583C132.418 54.5708 131.854 54.2986 131.391 53.7663L132.15 53.161C132.276 53.2747 132.418 53.3763 132.581 53.4576C132.748 53.5469 132.918 53.5957 133.097 53.6038C133.43 53.6038 133.698 53.5104 133.901 53.3275C134.101 53.1406 134.206 52.8806 134.21 52.5474V52.0477H134.214ZM132.28 50.1299C132.28 50.5037 132.292 50.7597 132.317 50.8978C132.337 51.0441 132.39 51.166 132.471 51.2635C132.536 51.3529 132.638 51.4301 132.772 51.5032C132.902 51.5926 133.06 51.6333 133.251 51.6333C133.442 51.6333 133.601 51.5886 133.731 51.5032C133.861 51.4301 133.954 51.3529 134.023 51.2635C134.105 51.166 134.157 51.0441 134.186 50.8978C134.206 50.7556 134.214 50.4997 134.214 50.1299C134.214 49.7521 134.206 49.488 134.186 49.3417C134.157 49.1954 134.105 49.0776 134.023 48.9842C133.958 48.8948 133.861 48.8094 133.731 48.7282C133.601 48.6551 133.442 48.6185 133.251 48.6104C133.06 48.6185 132.902 48.6551 132.772 48.7282C132.638 48.8135 132.536 48.8988 132.471 48.9842C132.39 49.0735 132.337 49.1954 132.317 49.3417C132.292 49.488 132.28 49.7521 132.28 50.1299Z" fill="#727274"></path><path d="M137.201 50.4956C137.201 50.8857 137.314 51.1823 137.538 51.3854C137.745 51.5926 138.021 51.6942 138.363 51.6942C138.761 51.6942 139.114 51.5358 139.427 51.2189L140.134 51.8242C139.639 52.3565 139.053 52.6165 138.379 52.6125C138.123 52.6125 137.871 52.5759 137.627 52.4987C137.505 52.4581 137.388 52.4053 137.27 52.3362C137.148 52.2752 137.034 52.2021 136.928 52.1168C136.721 51.9339 136.555 51.682 136.429 51.357C136.287 51.0441 136.217 50.6378 136.217 50.1381C136.217 49.6586 136.278 49.2564 136.4 48.9395C136.522 48.6144 136.681 48.3585 136.868 48.1716C137.063 47.9806 137.278 47.8425 137.518 47.7571C137.757 47.6718 137.989 47.6312 138.221 47.6312C138.777 47.6393 139.248 47.8222 139.63 48.1797C140.02 48.5454 140.22 49.0492 140.228 49.6911V50.4956H137.201ZM139.257 49.6871C139.244 49.3092 139.143 49.0248 138.952 48.8298C138.765 48.647 138.525 48.5535 138.229 48.5535C137.932 48.5535 137.692 48.647 137.505 48.8298C137.323 49.0248 137.221 49.3092 137.201 49.6871H139.257Z" fill="#727274"></path><path d="M148.264 50.646C148.114 51.2798 147.83 51.7674 147.407 52.1087C146.972 52.4459 146.456 52.6165 145.863 52.6165C145.327 52.6043 144.876 52.4743 144.518 52.2224C144.152 51.9827 143.888 51.7024 143.722 51.3895C143.673 51.2879 143.628 51.1863 143.584 51.0929C143.547 50.9954 143.515 50.8735 143.49 50.7272C143.445 50.4509 143.421 49.9228 143.421 49.1426C143.421 48.3504 143.445 47.8181 143.49 47.5499C143.539 47.2818 143.616 47.0624 143.722 46.8999C143.888 46.5829 144.152 46.3026 144.518 46.0547C144.88 45.8028 145.327 45.6769 145.863 45.6688C146.521 45.6769 147.062 45.8719 147.476 46.2538C147.89 46.6398 148.155 47.1233 148.264 47.6921H147.167C147.082 47.4159 146.932 47.1843 146.708 46.9892C146.477 46.8064 146.196 46.7089 145.863 46.7048C145.619 46.713 145.408 46.7577 145.233 46.8511C145.054 46.9446 144.912 47.0624 144.803 47.2046C144.668 47.3509 144.579 47.5418 144.534 47.7734C144.486 48.0172 144.461 48.4763 144.461 49.1467C144.461 49.8171 144.486 50.2722 144.534 50.5119C144.579 50.7475 144.668 50.9426 144.803 51.0888C144.912 51.231 145.054 51.3448 145.233 51.4301C145.408 51.5317 145.619 51.5845 145.863 51.5845C146.444 51.5845 146.879 51.2717 147.167 50.65H148.264V50.646Z" fill="#727274"></path><path d="M148.667 50.1218C148.667 49.6099 148.707 49.2158 148.792 48.9395C148.882 48.6713 149.016 48.4438 149.195 48.261C149.329 48.0984 149.516 47.9522 149.755 47.8262C149.991 47.7043 150.296 47.6393 150.67 47.6353C151.056 47.6434 151.364 47.7043 151.604 47.8262C151.84 47.9562 152.018 48.0984 152.149 48.261C152.344 48.4438 152.482 48.6713 152.563 48.9395C152.64 49.2158 152.681 49.6099 152.681 50.1218C152.681 50.6338 152.64 51.0238 152.563 51.296C152.482 51.5642 152.344 51.7958 152.149 51.9949C152.088 52.068 152.01 52.1371 151.917 52.2061C151.836 52.2833 151.73 52.3524 151.604 52.4093C151.368 52.5434 151.056 52.6124 150.67 52.6206C150.296 52.6124 149.991 52.5434 149.755 52.4093C149.516 52.2874 149.329 52.1493 149.195 51.9949C149.012 51.7998 148.878 51.5642 148.792 51.296C148.707 51.0238 148.667 50.6338 148.667 50.1218ZM151.698 50.1299C151.698 49.7846 151.681 49.5286 151.653 49.3702C151.62 49.2158 151.559 49.0817 151.462 48.9679C151.389 48.8582 151.283 48.7729 151.145 48.712C151.011 48.6469 150.852 48.6144 150.678 48.6144C150.511 48.6144 150.361 48.6469 150.219 48.712C150.084 48.7729 149.975 48.8623 149.889 48.9679C149.804 49.0817 149.743 49.2198 149.707 49.3702C149.67 49.5286 149.65 49.7805 149.65 50.1218C149.65 50.459 149.67 50.7069 149.707 50.8613C149.743 51.0197 149.804 51.1619 149.889 51.2838C149.975 51.3773 150.084 51.4585 150.219 51.5317C150.361 51.6008 150.511 51.6333 150.678 51.6333C150.856 51.6333 151.011 51.6008 151.145 51.5317C151.287 51.4585 151.393 51.3773 151.462 51.2838C151.559 51.1619 151.624 51.0197 151.653 50.8613C151.685 50.7028 151.698 50.459 151.698 50.1299Z" fill="#727274"></path><path d="M153.761 47.6921H154.741V48.2081H154.761C155.082 47.8221 155.505 47.6312 156.033 47.6312C156.37 47.6393 156.642 47.6962 156.849 47.8059C157.053 47.9278 157.239 48.0822 157.406 48.2691C157.788 47.8384 158.3 47.6231 158.938 47.6312C159.34 47.6312 159.71 47.7734 160.043 48.0578C160.376 48.3463 160.547 48.7688 160.559 49.3255V52.5596H159.58V49.6627C159.58 49.3214 159.49 49.0614 159.312 48.8826C159.133 48.6998 158.905 48.6104 158.621 48.6104C158.336 48.6104 158.109 48.6998 157.926 48.8826C157.743 49.0614 157.65 49.3214 157.65 49.6627V52.5596H156.671V49.6627C156.671 49.3214 156.581 49.0614 156.402 48.8826C156.22 48.6998 155.988 48.6104 155.708 48.6104C155.427 48.6104 155.196 48.6998 155.017 48.8826C154.83 49.0614 154.737 49.3214 154.737 49.6627V52.5596H153.757V47.6921H153.761Z" fill="#727274"></path><path d="M161.888 47.6921H162.867V48.2C163.192 47.8384 163.61 47.6474 164.122 47.6312C164.719 47.6474 165.154 47.8587 165.431 48.2691C165.565 48.4235 165.658 48.6226 165.707 48.8745C165.756 49.1223 165.776 49.5408 165.776 50.13C165.776 50.7069 165.751 51.1173 165.707 51.3692C165.658 51.6211 165.565 51.8242 165.431 51.9827C165.296 52.1696 165.122 52.3199 164.902 52.4337C164.687 52.5475 164.427 52.6084 164.122 52.6165C163.87 52.6165 163.647 52.5637 163.452 52.454C163.241 52.3524 163.046 52.2183 162.867 52.0396V54.5302H161.888V47.6921ZM163.83 51.6333C164.061 51.6333 164.244 51.5886 164.378 51.5033C164.512 51.4139 164.606 51.296 164.663 51.1579C164.724 51.0116 164.768 50.8491 164.789 50.6703C164.797 50.4956 164.797 50.3169 164.797 50.13C164.797 49.9349 164.793 49.748 164.789 49.5611C164.768 49.3783 164.724 49.2158 164.663 49.0736C164.606 48.9273 164.512 48.8095 164.378 48.7282C164.244 48.651 164.061 48.6104 163.83 48.6104C163.61 48.6104 163.436 48.6551 163.31 48.7445C163.176 48.8338 163.078 48.9557 163.013 49.102C162.952 49.2483 162.916 49.4067 162.895 49.5814C162.875 49.7643 162.867 49.9471 162.867 50.13C162.867 50.3006 162.875 50.4753 162.895 50.646C162.916 50.8288 162.952 50.9913 163.013 51.1376C163.074 51.2839 163.176 51.4017 163.31 51.4951C163.436 51.5886 163.61 51.6333 163.83 51.6333Z" fill="#727274"></path><path d="M169.429 52.1249H169.408C169.319 52.2915 169.177 52.4134 168.986 52.4906C168.799 52.5718 168.539 52.6125 168.206 52.6125C167.661 52.6043 167.243 52.4621 166.95 52.1818C166.641 51.9055 166.487 51.5561 166.487 51.1254C166.487 50.715 166.621 50.3778 166.889 50.1096C167.157 49.8333 167.551 49.6952 168.071 49.6871H169.429V49.1751C169.437 48.7485 169.104 48.5372 168.429 48.5535C168.185 48.5535 167.994 48.5779 167.852 48.6266C167.706 48.6876 167.588 48.7851 167.507 48.9273L166.739 48.3422C167.113 47.8547 167.661 47.619 168.384 47.6312C168.998 47.6231 169.485 47.7409 169.851 47.9765C170.217 48.2203 170.404 48.6388 170.408 49.232V52.5556H169.429V52.1249ZM169.429 50.4956H168.254C167.685 50.5078 167.405 50.7028 167.409 51.0807C167.409 51.2473 167.482 51.3854 167.629 51.5032C167.771 51.6333 168.002 51.6942 168.327 51.6942C168.738 51.7023 169.026 51.6536 169.193 51.5479C169.347 51.4464 169.424 51.2107 169.424 50.845V50.4956H169.429Z" fill="#727274"></path><path d="M171.675 47.6921H172.655V48.2081H172.675C172.996 47.8222 173.418 47.6312 173.943 47.6312C174.345 47.6312 174.715 47.7734 175.048 48.0578C175.381 48.3463 175.552 48.7688 175.568 49.3255V52.5596H174.589V49.6627C174.589 49.3214 174.499 49.0614 174.316 48.8826C174.138 48.6998 173.91 48.6104 173.626 48.6104C173.341 48.6104 173.114 48.6998 172.931 48.8826C172.748 49.0614 172.655 49.3214 172.655 49.6627V52.5596H171.675V47.6921Z" fill="#727274"></path><path d="M176.132 47.6921H177.169L178.322 51.101H178.343L179.493 47.6921H180.533L178.436 53.5673C178.302 53.9329 178.115 54.1848 177.88 54.327C177.64 54.4611 177.368 54.5302 177.063 54.5302H176.738V53.6079H177.022C177.152 53.6079 177.27 53.5754 177.38 53.5063C177.49 53.4332 177.567 53.3275 177.611 53.1894L177.88 52.3727L176.132 47.6921Z" fill="#727274"></path><path d="M183.272 24.972C183.272 24.5136 183.386 24.0854 183.617 23.6838C183.848 23.2822 184.162 22.9677 184.56 22.7366C184.962 22.5055 185.394 22.388 185.856 22.388C186.315 22.388 186.743 22.5017 187.144 22.7328C187.546 22.9602 187.86 23.2784 188.091 23.6762C188.323 24.0779 188.44 24.5098 188.44 24.972C188.44 25.4229 188.33 25.8472 188.107 26.2413C187.883 26.6391 187.572 26.9535 187.171 27.1922C186.769 27.4309 186.333 27.5484 185.856 27.5484C185.382 27.5484 184.947 27.4309 184.545 27.1922C184.144 26.9535 183.833 26.6391 183.609 26.2413C183.382 25.8472 183.272 25.4229 183.272 24.972ZM183.757 24.972C183.757 25.3471 183.852 25.6957 184.037 26.0215C184.227 26.3436 184.481 26.6012 184.807 26.7868C185.132 26.9725 185.481 27.0672 185.852 27.0672C186.227 27.0672 186.576 26.9725 186.902 26.7868C187.224 26.6012 187.481 26.3436 187.667 26.0177C187.853 25.6919 187.947 25.3433 187.947 24.972C187.947 24.5969 187.853 24.2483 187.667 23.9225C187.478 23.6005 187.224 23.3428 186.898 23.1572C186.572 22.9715 186.224 22.8768 185.852 22.8768C185.477 22.8768 185.129 22.9715 184.803 23.1572C184.481 23.3466 184.223 23.6005 184.037 23.9263C183.852 24.2521 183.757 24.6007 183.757 24.972ZM186.902 24.3734C186.902 24.7636 186.739 25.0288 186.409 25.1728L187.224 26.5481H186.352L185.739 25.385H185.576V26.5444H184.788V23.3997H185.693C186.106 23.3997 186.413 23.4792 186.606 23.6383C186.803 23.8013 186.902 24.0475 186.902 24.3734ZM185.579 24.8091H185.686C185.837 24.8091 185.943 24.775 186.011 24.7106C186.076 24.6462 186.11 24.5363 186.11 24.3847C186.11 24.237 186.08 24.1309 186.015 24.0703C185.951 24.0097 185.841 23.9793 185.682 23.9793H185.583V24.8091H185.579Z" fill="#70B37F"></path><path d="M112.74 25.7525H109.993V39.4036H112.74V25.7525Z" fill="#70B37F"></path><path d="M111.736 20.1527H110.993C110.394 20.1527 109.909 20.6339 109.909 21.2363V21.9789C109.909 22.5775 110.391 23.0625 110.993 23.0625H111.736C112.334 23.0625 112.819 22.5813 112.819 21.9789V21.2363C112.819 20.6376 112.338 20.1527 111.736 20.1527Z" fill="#70B37F"></path><path d="M87.8321 29.5489C89.1241 29.0374 90.416 27.556 90.416 25.4835C90.416 22.2517 88.1806 20.2322 84.6267 20.2322H77.1703V38.3162C77.1703 38.9148 77.6553 39.4036 78.2502 39.4036H84.926C88.317 39.4036 90.7153 37.5206 90.7153 33.9932C90.7153 31.5683 89.3135 30.1438 87.8321 29.5489ZM80.0802 22.8465H84.388C86.2446 22.8465 87.51 23.8164 87.51 25.5934C87.51 27.3703 86.2446 28.3403 84.388 28.3403H80.0802V22.8465ZM84.657 36.7931H80.0802V30.9508H84.657C86.6765 30.9508 87.8055 32.1632 87.8055 33.8568C87.8055 35.5504 86.6765 36.7931 84.657 36.7931Z" fill="#70B37F"></path><path d="M102.885 34.0728C102.885 36.1718 101.593 37.1152 100.059 37.1152C98.5241 37.1152 97.3117 36.1983 97.3117 34.0728V25.7525H94.5648V34.4782C94.5648 36.0126 94.8869 37.3046 95.9364 38.3276C96.7434 39.1081 97.9028 39.5665 99.3008 39.5665C100.672 39.5665 101.995 39.055 102.934 38.0321V39.4036H105.628V25.7525H102.881V34.0728H102.885Z" fill="#70B37F"></path><path d="M154.64 34.0728C154.64 36.1718 153.348 37.1152 151.814 37.1152C150.279 37.1152 149.067 36.1983 149.067 34.0728V25.7525H146.32V34.4782C146.32 36.0126 146.642 37.3046 147.691 38.3276C148.498 39.1081 149.658 39.5665 151.056 39.5665C152.427 39.5665 153.75 39.055 154.689 38.0321V39.4036H157.383V25.7525H154.636V34.0728H154.64Z" fill="#70B37F"></path><path d="M179.68 26.8323C178.873 26.0518 177.634 25.5934 176.232 25.5934C174.429 25.5934 173.054 26.2413 171.951 27.5863C171.091 26.2678 169.769 25.5934 168.075 25.5934C166.704 25.5934 165.355 26.1314 164.442 27.1279V25.7563H161.748V39.4036H164.495V31.0834C164.495 28.9844 165.787 28.041 167.321 28.041C168.856 28.041 170.068 28.9578 170.068 31.0834V39.4036H172.815V30.9508C172.815 28.9844 174.16 28.0447 175.641 28.0447C177.176 28.0447 178.388 28.9616 178.388 31.0872V39.4036H180.048C180.646 39.4036 181.131 38.9224 181.131 38.3351V30.6818C181.131 29.1473 180.73 27.8553 179.68 26.8323Z" fill="#70B37F"></path><path d="M141.091 20.1527H140.349C139.75 20.1527 139.265 20.6339 139.265 21.2363V21.9789C139.265 22.5775 139.746 23.0625 140.349 23.0625H141.091C141.69 23.0625 142.175 22.5813 142.175 21.9789V21.2363C142.175 20.6376 141.694 20.1527 141.091 20.1527Z" fill="#70B37F"></path><path d="M132.241 27.1279C131.244 25.942 130.115 25.5934 128.66 25.5934C127.289 25.5934 126.103 26.0518 125.349 26.8058C123.977 28.1774 123.814 30.4961 123.814 32.5686C123.814 34.6411 123.977 36.9825 125.349 38.3579C126.103 39.1119 127.315 39.5703 128.687 39.5703C130.168 39.5703 131.271 39.1952 132.294 37.9563V39.4036H134.988V20.2322H132.241V27.1279ZM129.41 37.1152C126.933 37.1152 126.557 34.9896 126.557 32.5648C126.557 30.14 126.936 28.041 129.41 28.041C131.884 28.041 132.237 30.14 132.237 32.5648C132.237 34.9896 131.888 37.1152 129.41 37.1152Z" fill="#70B37F"></path><path d="M142.095 25.7525H139.348V39.4036H142.095V25.7525Z" fill="#70B37F"></path><path d="M121.374 37.0621H121.246C120.143 37.0621 119.764 36.5241 119.764 35.4746V20.236H117.017V35.6375C117.017 37.657 118.146 39.4074 120.761 39.4074H121.374C121.973 39.4074 122.458 38.9338 122.458 38.3314V38.1381C122.458 37.5433 121.965 37.0621 121.374 37.0621Z" fill="#70B37F"></path><path d="M59.9995 0H0V59.9995H59.9995V0Z" fill="#70B37F"></path><path d="M42.73 9.83196L31.8107 12.4424C31.1325 12.6129 30.208 13.1737 29.7723 13.7003L17.2693 29.4163H21.4749V45.1512C21.4749 45.8446 22.0015 46.5796 22.6835 46.7842L32.6405 49.8076V29.4163H27.249L42.73 9.83196Z" fill="white"></path></svg> 