<svg width="283" height="60" viewbox="0 0 283 60" xmlns="http://www.w3.org/2000/svg" xmlns:xlink="http://www.w3.org/1999/xlink"><defs><path id="a" d="M0 .12h55.16v26.925H0z"/><path id="c" d="M0 59.158h282.814V.37H0z"/></defs><g fill="none" fill-rule="evenodd"><path d="M67.903 33.374h-2.834c-1.53 0-2.296.6-2.296 1.8 0 1.178.724 1.737 2.358 1.737.848 0 1.592-.083 2.254-.683.352-.331.518-.91.518-1.758v-1.096zm0 4.694v-.972c-.807.807-1.572 1.097-2.937 1.097-1.407 0-2.172-.248-2.875-.93-.517-.498-.765-1.263-.765-2.07 0-1.799 1.261-2.936 3.536-2.936h3.04v-.972c0-1.468-.723-2.234-2.605-2.234-1.283 0-1.944.331-2.565 1.18l-1.014-.932c.89-1.179 1.924-1.53 3.6-1.53 2.75 0 4.074 1.2 4.074 3.392v6.907h-1.49zM74.652 38.069c-1.779 0-2.586-1.158-2.586-2.71V23.343h1.49v11.954c0 .993.33 1.49 1.365 1.49h.288c.286 0 .518.231.518.517v.247a.518.518 0 0 1-.518.518h-.557zM79.83 38.069c-1.78 0-2.586-1.158-2.586-2.71V23.343h1.49v11.954c0 .993.33 1.49 1.364 1.49h.289c.286 0 .518.231.518.517v.247a.518.518 0 0 1-.518.518h-.558zM146.901 37.918c-1.737 0-2.606-1.22-2.606-2.73V24.62h1.49v3.123h2.17v1.137h-2.17v6.267c0 .93.433 1.489 1.385 1.489h.786v1.282H146.9zM153.656 40.38c-.207.558-.435.93-.724 1.199-.538.517-1.262.703-1.986.703h-.641v-1.324h.455c1.034 0 1.344-.33 1.675-1.261l.724-1.986-3.66-9.968h1.613l2.791 8.169 2.772-8.17h1.613l-4.632 12.637zM92.177 29.093c-2.234 0-2.564 1.902-2.564 3.888 0 1.985.33 3.888 2.564 3.888 2.213 0 2.544-1.903 2.544-3.888 0-1.986-.33-3.888-2.544-3.888m2.792 8.21c-.538.538-1.427.89-2.482.89-1.117 0-2.027-.27-2.874-1.324V42.1a.518.518 0 0 1-.518.518h-.454a.518.518 0 0 1-.518-.518V27.893h1.49v1.2c.847-1.055 1.737-1.324 2.874-1.324 1.055 0 1.944.351 2.482.89 1.014 1.012 1.241 2.688 1.241 4.322s-.227 3.288-1.24 4.322M104.18 29.837c-.56-.558-.973-.744-1.758-.744-1.49 0-2.44 1.179-2.44 2.73v6.246h-1.49V27.893h1.49v1.241c.558-.848 1.674-1.365 2.853-1.365.972 0 1.717.228 2.44.952l-1.095 1.116zM111.608 29.837c-.497-.496-1.138-.744-1.862-.744-.723 0-1.344.248-1.84.744-.745.745-.827 1.985-.827 3.144 0 1.137.061 2.378.827 3.144.496.496 1.117.744 1.84.744.724 0 1.365-.248 1.862-.744.744-.766.806-2.007.806-3.144 0-1.159-.062-2.4-.806-3.144m1.055 7.198c-.704.724-1.676 1.157-2.917 1.157-1.24 0-2.213-.433-2.916-1.157-1.034-1.055-1.24-2.482-1.24-4.054s.206-3.02 1.24-4.054c.703-.724 1.675-1.158 2.916-1.158 1.241 0 2.213.434 2.917 1.158 1.034 1.034 1.24 2.482 1.24 4.054s-.206 2.999-1.24 4.054M119.788 29.093c-2.234 0-2.565 1.902-2.565 3.888 0 1.985.331 3.888 2.565 3.888 2.213 0 2.544-1.903 2.544-3.888 0-1.986-.331-3.888-2.544-3.888m2.792 8.21c-.538.538-1.427.89-2.482.89-1.117 0-2.027-.27-2.875-1.324V42.1a.518.518 0 0 1-.517.518h-.454a.518.518 0 0 1-.518-.518V27.893h1.49v1.2c.847-1.055 1.737-1.324 2.874-1.324 1.055 0 1.944.351 2.482.89 1.013 1.012 1.241 2.688 1.241 4.322s-.228 3.288-1.241 4.322M132.1 30.561c-.434-.93-1.282-1.53-2.378-1.53s-1.945.6-2.378 1.53c-.249.538-.27.869-.31 1.696h5.397c-.062-.827-.083-1.158-.33-1.696zm-5.067 2.813c0 2.234 1.034 3.516 2.999 3.516 1.179 0 1.861-.352 2.668-1.158l1.013.889c-1.034 1.034-2.006 1.571-3.722 1.571-2.71 0-4.447-1.613-4.447-5.211 0-3.31 1.592-5.212 4.178-5.212 2.647 0 4.177 1.882 4.177 4.943v.662h-6.866zM141.849 29.837c-.56-.558-.973-.744-1.758-.744-1.49 0-2.441 1.179-2.441 2.73v6.246h-1.49V27.893h1.49v1.241c.559-.848 1.675-1.365 2.854-1.365.972 0 1.717.228 2.44.952l-1.095 1.116zM177.45 38.028v-6.32c0-1.617-.921-2.312-2.087-2.312-1.125 0-2.148.716-2.148 2.209v6.423h-2.087v-6.32c0-1.617-.92-2.312-2.086-2.312s-2.148.716-2.148 2.311v6.321h-2.086V27.657h2.045V28.7c.696-.757 1.719-1.166 2.762-1.166 1.289 0 2.29.511 2.945 1.514.839-1.023 1.882-1.514 3.253-1.514 1.064 0 2.004.348 2.618.941.798.777 1.105 1.76 1.105 2.925v6.628h-2.087zM188.293 33.446H185.9c-1.268 0-1.903.532-1.903 1.493 0 .961.593 1.473 1.964 1.473.736 0 1.33-.082 1.882-.593.327-.307.45-.798.45-1.534v-.84zm.04 4.582v-.94c-.756.756-1.472 1.063-2.76 1.063-1.29 0-2.148-.307-2.783-.941-.531-.553-.818-1.35-.818-2.23 0-1.739 1.207-2.986 3.6-2.986h2.72v-.737c0-1.33-.633-1.943-2.27-1.943-1.104 0-1.677.286-2.27 1.023l-1.35-1.289c.961-1.146 1.964-1.514 3.702-1.514 2.864 0 4.276 1.228 4.276 3.56v6.934h-2.046zM199.913 38.028v-6.32c0-1.617-.92-2.312-2.086-2.312s-2.148.716-2.148 2.311v6.321h-2.087V27.657h2.046V28.7c.716-.777 1.718-1.166 2.761-1.166 1.064 0 1.944.348 2.557.941.798.777 1.043 1.76 1.043 2.925v6.628h-2.086zM210.757 33.446h-2.394c-1.268 0-1.903.532-1.903 1.493 0 .961.594 1.473 1.964 1.473.737 0 1.33-.082 1.882-.593.328-.307.45-.798.45-1.534v-.84zm.04 4.582v-.94c-.757.756-1.472 1.063-2.762 1.063-1.288 0-2.147-.307-2.782-.941-.53-.553-.818-1.35-.818-2.23 0-1.739 1.207-2.986 3.6-2.986h2.722v-.737c0-1.33-.635-1.943-2.271-1.943-1.105 0-1.678.286-2.271 1.023l-1.35-1.289c.961-1.146 1.963-1.514 3.702-1.514 2.864 0 4.276 1.228 4.276 3.56v6.934h-2.046zM219.778 29.396c-1.881 0-2.127 1.616-2.127 3.252 0 1.637.246 3.252 2.127 3.252 1.882 0 2.107-1.615 2.107-3.252 0-1.636-.225-3.252-2.107-3.252m-.245 12.948c-1.575 0-2.578-.368-3.662-1.37l1.33-1.33c.655.614 1.227.92 2.25.92 1.759 0 2.434-1.247 2.434-2.638v-1.33c-.756.9-1.616 1.187-2.68 1.187-1.043 0-1.902-.348-2.475-.921-1.002-1.002-1.165-2.455-1.165-4.214 0-1.76.163-3.211 1.165-4.214.573-.572 1.453-.9 2.496-.9 1.105 0 1.943.287 2.72 1.228v-1.105h2.026v10.31c0 2.536-1.678 4.377-4.439 4.377M233.198 30.582c-.347-.777-1.063-1.31-2.045-1.31-1.002 0-1.718.533-2.066 1.31-.204.45-.245.777-.266 1.412h4.664c-.041-.635-.082-.962-.287-1.412zm-4.377 2.864c0 1.8.92 2.904 2.64 2.904 1.165 0 1.778-.327 2.515-1.063l1.33 1.248c-1.064 1.063-2.067 1.616-3.887 1.616-2.598 0-4.664-1.37-4.664-5.319 0-3.375 1.739-5.298 4.398-5.298 2.782 0 4.398 2.005 4.398 5.032v.88h-6.73zM250.956 38.028v-6.32c0-1.617-.92-2.312-2.087-2.312-1.125 0-2.148.716-2.148 2.209v6.423h-2.086v-6.32c0-1.617-.92-2.312-2.087-2.312-1.166 0-2.147.716-2.147 2.311v6.321h-2.087V27.657h2.045V28.7c.696-.757 1.719-1.166 2.762-1.166 1.289 0 2.291.511 2.946 1.514.838-1.023 1.882-1.514 3.252-1.514 1.064 0 2.005.348 2.618.941.798.777 1.105 1.76 1.105 2.925v6.628h-2.086zM262.167 30.582c-.347-.777-1.063-1.31-2.045-1.31-1.002 0-1.719.533-2.067 1.31-.204.45-.244.777-.265 1.412h4.664c-.04-.635-.082-.962-.287-1.412zm-4.377 2.864c0 1.8.92 2.904 2.64 2.904 1.165 0 1.778-.327 2.515-1.063l1.33 1.248c-1.064 1.063-2.067 1.616-3.887 1.616-2.598 0-4.664-1.37-4.664-5.319 0-3.375 1.739-5.298 4.398-5.298 2.782 0 4.398 2.005 4.398 5.032v.88h-6.73zM273.692 37.857v-6.321c0-1.617-.92-2.312-2.087-2.312-1.165 0-2.147.716-2.147 2.312v6.32h-2.087v-10.37h2.046v1.043c.716-.777 1.719-1.166 2.761-1.166 1.064 0 1.944.347 2.558.94.798.778 1.043 1.76 1.043 2.926v6.628h-2.087zM281.567 38.662c-1.944 0-2.844-1.39-2.844-2.884V25.325h2.086v2.966h2.005v1.596h-2.005v5.788c0 .757.368 1.207 1.146 1.207h.859v1.78h-1.247z" fill="#183760"/><g transform="translate(0 .25)"><mask id="b" fill="#fff"><use xlink:href="#a"/></mask><path d="M28.888.774C28.342.22 27.985.12 27.592.12c-.388 0-.755.119-1.243.59-.489.47-.013 0-.013 0L0 27.046h8.52l19.06-19.06 19.06 19.06h8.52S29.435 1.326 28.888.774" fill="#15375E" mask="url(#b)"/></g><mask id="d" fill="#fff"><use xlink:href="#c"/></mask><path fill="#70B47F" mask="url(#d)" d="M12.995 38.496h11.048v-11.03H12.995z"/><path fill="#64AFCE" mask="url(#d)" d="M31.074 38.496h11.048v-11.03H31.074z"/><path fill="#979CA4" mask="url(#d)" d="M12.995 56.42h11.048V45.39H12.995z"/><path fill="#F06B38" mask="url(#d)" d="M31.074 56.42h11.048V45.39H31.074z"/><path d="M66.546 52.516l-1.017-2.71a14.453 14.453 0 0 1-.408-1.264c-.088.383-.213.804-.377 1.263l-1.029 2.711h2.83zm1.406 3.698l-1.09-2.782h-3.506l-1.077 2.782h-1.03l3.46-8.785h.856l3.44 8.785h-1.053zM74.409 52.073v3.273h1.825c.706 0 1.238-.136 1.595-.41.357-.273.535-.7.535-1.283 0-.543-.182-.942-.547-1.197-.365-.255-.92-.383-1.667-.383H74.41zm0-.861h1.676c.717 0 1.234-.113 1.55-.338.314-.225.472-.607.472-1.14 0-.491-.176-.845-.526-1.063-.352-.218-.91-.326-1.676-.326h-1.496v2.867zm-1.018-3.747h2.472c1.16 0 2.001.174 2.52.52.518.348.777.896.777 1.647 0 .519-.145.945-.434 1.283-.289.337-.71.556-1.266.655v.06c1.33.227 1.993.926 1.993 2.095 0 .781-.264 1.392-.793 1.83-.528.44-1.267.659-2.216.659H73.39v-8.749zM82.116 49.655v4.255c0 .535.122.934.365 1.197.244.263.625.395 1.143.395.686 0 1.188-.188 1.505-.562.317-.376.476-.987.476-1.838v-3.447h.994v6.559h-.82l-.144-.88h-.054c-.203.323-.485.571-.846.743a2.849 2.849 0 0 1-1.236.257c-.798 0-1.396-.19-1.792-.568-.398-.38-.596-.986-.596-1.82v-4.291h1.005zM88.704 56.214h.994v-6.559h-.994v6.559zm-.083-8.336c0-.227.056-.393.168-.5a.588.588 0 0 1 .419-.158c.159 0 .297.053.412.162.116.107.174.273.174.496 0 .224-.058.39-.174.5a.579.579 0 0 1-.412.164.573.573 0 0 1-.42-.164c-.111-.11-.167-.276-.167-.5zM91.804 56.214h.994v-9.31h-.994zM97.382 55.502c.678 0 1.17-.185 1.475-.554.305-.369.458-.964.458-1.786v-.21c0-.928-.155-1.592-.464-1.99-.31-.396-.803-.595-1.48-.595-.583 0-1.029.226-1.339.68-.309.452-.463 1.091-.463 1.918 0 .837.154 1.47.46 1.896.307.427.759.64 1.353.64zm1.987-.167h-.054c-.459.666-1.145 1-2.059 1-.857 0-1.525-.295-2.001-.88-.477-.587-.715-1.42-.715-2.502 0-1.082.239-1.922.718-2.52.478-.598 1.144-.897 1.998-.897.89 0 1.572.323 2.047.97h.078l-.042-.473-.024-.462v-2.668h.993v9.311H99.5l-.131-.88zM102.415 56.214h.993v-6.559h-.993v6.559zm-.084-8.336c0-.227.055-.393.168-.5a.589.589 0 0 1 .419-.158c.159 0 .297.053.412.162.116.107.174.273.174.496 0 .224-.058.39-.174.5a.578.578 0 0 1-.412.164.573.573 0 0 1-.42-.164c-.112-.11-.167-.276-.167-.5zM106.448 49.655v4.255c0 .535.122.934.365 1.197.244.263.625.395 1.143.395.686 0 1.188-.188 1.505-.562.317-.376.476-.987.476-1.838v-3.447h.993v6.559h-.82l-.143-.88h-.054c-.203.323-.486.571-.846.743a2.849 2.849 0 0 1-1.236.257c-.798 0-1.396-.19-1.792-.568-.398-.38-.596-.986-.596-1.82v-4.291h1.005zM121.396 56.214v-4.266c0-.523-.111-.916-.335-1.176-.223-.262-.57-.393-1.04-.393-.619 0-1.076.178-1.371.533-.296.355-.443.901-.443 1.64v3.662h-.994v-4.266c0-.523-.111-.916-.334-1.176-.224-.262-.573-.393-1.048-.393-.622 0-1.078.187-1.367.56-.29.374-.434.985-.434 1.835v3.44h-.994v-6.559h.809l.161.898h.048c.187-.319.452-.569.793-.748a2.429 2.429 0 0 1 1.146-.269c1.025 0 1.695.371 2.01 1.113h.048c.196-.343.48-.614.85-.814.371-.2.794-.299 1.268-.299.743 0 1.298.19 1.667.572.37.38.554.99.554 1.828v4.278h-.994zM131.516 48.25c-.962 0-1.72.32-2.277.96-.557.64-.835 1.517-.835 2.63 0 1.145.268 2.029.805 2.653.536.625 1.301.937 2.295.937.61 0 1.306-.11 2.088-.33v.893c-.606.227-1.354.341-2.244.341-1.289 0-2.283-.391-2.983-1.173-.7-.783-1.05-1.893-1.05-3.334 0-.9.169-1.69.505-2.37.338-.677.824-1.2 1.46-1.567.637-.367 1.386-.55 2.247-.55.918 0 1.72.167 2.406.502l-.43.874a4.637 4.637 0 0 0-1.987-.466M136.016 52.93c0 .837.167 1.475.502 1.914.336.439.828.657 1.478.657.651 0 1.145-.217 1.482-.655.337-.436.505-1.075.505-1.917 0-.834-.168-1.467-.505-1.9-.337-.433-.835-.65-1.494-.65-.65 0-1.14.214-1.471.64-.332.428-.497 1.064-.497 1.91m4.997 0c0 1.069-.27 1.903-.808 2.504-.539.6-1.283.901-2.232.901-.587 0-1.107-.138-1.562-.413a2.726 2.726 0 0 1-1.053-1.185c-.248-.514-.371-1.117-.371-1.807 0-1.07.267-1.902.802-2.498.534-.597 1.276-.895 2.226-.895.917 0 1.646.304 2.186.915.541.61.812 1.436.812 2.478M151.114 56.214v-4.266c0-.523-.112-.916-.335-1.176-.224-.262-.57-.393-1.041-.393-.619 0-1.076.178-1.37.533-.296.355-.444.901-.444 1.64v3.662h-.993v-4.266c0-.523-.112-.916-.335-1.176-.223-.262-.573-.393-1.047-.393-.623 0-1.079.187-1.368.56-.289.374-.434.985-.434 1.835v3.44h-.993v-6.559h.808l.162.898h.047a1.95 1.95 0 0 1 .793-.748 2.429 2.429 0 0 1 1.146-.269c1.026 0 1.695.371 2.01 1.113h.049c.196-.343.479-.614.85-.814.37-.2.793-.299 1.268-.299.742 0 1.297.19 1.666.572.37.38.554.99.554 1.828v4.278h-.993zM157.062 50.38c-.67 0-1.155.185-1.454.556-.299.371-.453.961-.461 1.771v.222c0 .922.154 1.58.46 1.977.308.398.8.596 1.479.596.566 0 1.01-.23 1.331-.688.322-.459.482-1.09.482-1.897 0-.818-.16-1.446-.482-1.882-.32-.437-.773-.656-1.355-.656m.144 5.955c-.427 0-.817-.079-1.17-.237a2.21 2.21 0 0 1-.89-.727h-.071c.048.383.072.746.072 1.09v2.698h-.994v-9.503h.809l.137.898h.048c.255-.358.553-.618.892-.778.339-.16.728-.24 1.167-.24.87 0 1.54.298 2.013.892.473.594.71 1.428.71 2.502 0 1.077-.24 1.914-.721 2.51-.482.597-1.148.895-2.002.895M163.453 55.514c.618 0 1.104-.17 1.458-.51.353-.338.529-.812.529-1.423v-.593l-.993.042c-.79.03-1.36.151-1.709.37-.35.216-.523.554-.523 1.013 0 .36.108.632.326.82.217.187.521.28.912.28zm2.244.7l-.197-.933h-.048c-.327.41-.654.688-.979.834-.325.147-.73.22-1.217.22-.65 0-1.16-.169-1.53-.504-.368-.335-.553-.812-.553-1.43 0-1.325 1.06-2.02 3.178-2.082l1.113-.037v-.406c0-.515-.111-.895-.332-1.14-.221-.245-.576-.369-1.062-.369-.547 0-1.166.168-1.855.503l-.306-.76a4.694 4.694 0 0 1 1.062-.412c.386-.1.771-.15 1.159-.15.781 0 1.36.173 1.738.52.377.348.565.905.565 1.67v4.476h-.736zM172.968 56.214v-4.243c0-.534-.121-.933-.365-1.196-.243-.264-.624-.396-1.143-.396-.686 0-1.189.185-1.508.557-.319.37-.479.984-.479 1.838v3.44h-.993v-6.559h.808l.161.898h.048a2.03 2.03 0 0 1 .856-.751 2.786 2.786 0 0 1 1.227-.266c.79 0 1.384.19 1.783.572.399.38.598.99.598 1.828v4.278h-.993zM174.96 49.655h1.066l1.436 3.741c.315.854.51 1.47.587 1.848h.047c.052-.203.16-.55.326-1.043.166-.493.707-2.008 1.625-4.546h1.066l-2.82 7.469c-.278.738-.604 1.261-.978 1.57-.372.31-.83.464-1.373.464a4 4 0 0 1-.898-.1v-.797c.22.047.465.072.737.072.682 0 1.169-.383 1.46-1.15l.365-.933-2.645-6.595z" fill="#828488" mask="url(#d)"/></g></svg>